<svg width="20" height="20" viewBox="0 0 20 20" fill="none" xmlns="http://www.w3.org/2000/svg">
<path d="M10.7663 11.4586V11.1098C10.7663 10.6845 10.4216 10.3398 9.99656 10.3398C9.57125 10.3398 9.22656 10.6845 9.22656 11.1098V11.4586C9.22656 11.8839 9.57125 12.2286 9.99656 12.2286C10.4212 12.2286 10.7663 11.8839 10.7663 11.4586Z" fill="white"/>
<path d="M11.2944 11.8847C11.1237 12.4431 10.6097 12.8531 9.99656 12.8531C9.38312 12.8531 8.86906 12.4431 8.69844 11.8847H3.39563C3.06094 11.8847 2.74469 11.8069 2.46094 11.6719V15.1928C2.46094 15.8803 3.02344 16.4428 3.71094 16.4428H16.2816C16.9691 16.4428 17.5316 15.8803 17.5316 15.1928V11.6722C17.2475 11.8072 16.9316 11.885 16.5969 11.885H11.2944V11.8847Z" fill="white"/>
<path d="M16.5475 5.56109H13.5472C13.3659 4.42797 12.3844 3.55859 11.2009 3.55859H8.79688C7.61344 3.55859 6.63219 4.42797 6.45062 5.56109H3.45063C2.73438 5.56109 2.14844 6.12359 2.14844 6.81109V9.69641C2.14844 10.3867 2.70813 10.9464 3.39844 10.9464H8.64219C8.66 10.5867 8.81437 10.2636 9.05844 10.0298C9.06594 10.0227 9.07469 10.017 9.0825 10.0102C9.13656 9.96047 9.19281 9.91359 9.25437 9.87297C9.27625 9.85828 9.30125 9.84828 9.32406 9.83516C9.37469 9.80609 9.42469 9.77578 9.47937 9.75328C9.52219 9.73547 9.56844 9.72516 9.61344 9.71172C9.65219 9.70016 9.68906 9.68484 9.72937 9.67672C9.81656 9.65891 9.90688 9.64953 9.99906 9.64953C10.0916 9.64953 10.1816 9.65922 10.2687 9.67672C10.3087 9.68484 10.3456 9.70016 10.3844 9.71172C10.4294 9.72516 10.4756 9.73547 10.5184 9.75359C10.5728 9.77609 10.6225 9.80609 10.6731 9.83516C10.6962 9.84859 10.7212 9.85859 10.7434 9.87328C10.805 9.91359 10.8609 9.96047 10.915 10.0102C10.9228 10.0173 10.9319 10.023 10.9394 10.0305C11.1837 10.2642 11.3378 10.5873 11.3556 10.947H16.5994C17.2897 10.947 17.8494 10.3873 17.8494 9.69703V6.81172C17.8497 6.12359 17.2638 5.56109 16.5475 5.56109ZM7.65406 5.56109C7.81344 5.07953 8.2625 4.72859 8.79688 4.72859H11.2009C11.7353 4.72859 12.1844 5.07953 12.3438 5.56109H7.65406Z" fill="white"/>
</svg>
