<svg width="15" height="18" viewBox="0 0 15 18" fill="none" xmlns="http://www.w3.org/2000/svg">
<path d="M15 2.57063V4.17902C15 5.59336 11.6384 6.75 7.5 6.75C3.36161 6.75 0 5.59336 0 4.18008V2.57063C0 1.15594 3.36161 0 7.5 0C11.6384 0 15 1.15594 15 2.57063ZM15 6.1875V9.80508C15 11.2184 11.6384 12.375 7.5 12.375C3.36161 12.375 0 11.2184 0 9.80508V6.1875C1.61116 7.35187 4.56027 7.8968 7.5 7.8968C10.4397 7.8968 13.3895 7.35117 15 6.1875ZM15 11.8125V15.4301C15 16.8434 11.6384 18 7.5 18C3.36161 18 0 16.8441 0 15.429V11.8125C1.61116 12.9772 4.56027 13.5221 7.5 13.5221C10.4397 13.5221 13.3895 12.9762 15 11.8125Z" fill="white"/>
</svg>
