<svg width="14" height="19" viewBox="0 0 14 19" fill="none" xmlns="http://www.w3.org/2000/svg">
<path d="M12.0026 6.66536H11.1693V4.9987C11.1693 2.6987 9.3026 0.832031 7.0026 0.832031C4.7026 0.832031 2.83594 2.6987 2.83594 4.9987V6.66536H2.0026C1.08177 6.66536 0.335938 7.4112 0.335938 8.33203V16.6654C0.335938 17.5862 1.08177 18.332 2.0026 18.332H12.0026C12.9234 18.332 13.6693 17.5862 13.6693 16.6654V8.33203C13.6693 7.4112 12.9234 6.66536 12.0026 6.66536ZM7.0026 14.1654C6.08177 14.1654 5.33594 13.4195 5.33594 12.4987C5.33594 11.5779 6.08177 10.832 7.0026 10.832C7.92344 10.832 8.66927 11.5779 8.66927 12.4987C8.66927 13.4195 7.92344 14.1654 7.0026 14.1654ZM9.58594 6.66536H4.41927V4.9987C4.41927 3.5737 5.5776 2.41536 7.0026 2.41536C8.4276 2.41536 9.58594 3.5737 9.58594 4.9987V6.66536Z" fill="white"/>
</svg>
