<svg width="16" height="16" viewBox="0 0 16 16" fill="none" xmlns="http://www.w3.org/2000/svg">
<g clip-path="url(#clip0_4_2385)">
<path d="M12.4834 4.47859C13.0136 4.47859 13.4434 4.04879 13.4434 3.51859C13.4434 2.9884 13.0136 2.55859 12.4834 2.55859C11.9532 2.55859 11.5234 2.9884 11.5234 3.51859C11.5234 4.04879 11.9532 4.47859 12.4834 4.47859Z" stroke="black" stroke-width="2" stroke-miterlimit="10" stroke-linecap="round"/>
<path d="M15.041 1.76094C15.041 1.31902 14.6829 0.960938 14.241 0.960938C14.1911 0.960938 9.4807 0.961578 9.4807 0.961578C9.0551 0.961578 8.64774 0.939178 8.41158 1.17534L1.1383 8.4483C0.901817 8.68446 0.901817 9.06782 1.1383 9.30398L6.69798 14.8637C6.93414 15.0998 7.3175 15.0998 7.55366 14.8637L14.8266 7.59038C15.0628 7.35454 15.0404 6.95678 15.0404 6.52158C15.0404 6.52158 15.041 1.81086 15.041 1.76094Z" fill="white" stroke="white" stroke-width="2" stroke-miterlimit="10" stroke-linecap="round"/>
<path d="M6.11332 8.78384C6.11524 9.05904 6.20388 9.31984 6.37892 9.56496L7.77317 8.17072C7.63301 7.93936 7.52261 7.72912 7.44197 7.53968C7.36069 7.3496 7.31397 7.17296 7.29957 7.00784C7.28581 6.84304 7.31204 6.68528 7.37892 6.53456C7.44548 6.38352 7.55589 6.23088 7.71013 6.07632C7.86789 5.91856 8.04069 5.80208 8.22821 5.72656C8.41573 5.65104 8.60613 5.61328 8.79909 5.61328C8.99205 5.61328 9.18213 5.65072 9.36997 5.72656C9.55749 5.80176 9.73189 5.90992 9.89349 6.05008L10.2407 5.70288L10.53 5.99248L10.1773 6.34512C10.4263 6.66416 10.5472 6.99536 10.5405 7.33904C10.5335 7.68272 10.4106 8.04432 10.1722 8.42288L9.72517 7.97584C10.002 7.55824 10.0093 7.15856 9.74629 6.77648L8.45189 8.07088L8.68325 8.47024C8.73605 8.55824 8.78757 8.67152 8.83877 8.81008C8.88933 8.94832 8.92005 9.1 8.93061 9.26512C8.94117 9.4296 8.91941 9.6008 8.86501 9.77808C8.81061 9.95536 8.70245 10.1243 8.54117 10.2856C8.36933 10.4574 8.18789 10.5813 7.99653 10.6565C7.80549 10.732 7.61061 10.7672 7.41285 10.7618C7.21445 10.7563 7.01733 10.7118 6.82053 10.6277C6.62437 10.5432 6.43493 10.4242 6.25253 10.2702L5.82116 10.7016L5.53157 10.4123L5.96293 9.98064C5.64741 9.59472 5.49028 9.19408 5.4922 8.7784C5.4938 8.36272 5.66501 7.95664 6.00517 7.56016L6.4522 8.0072C6.225 8.24976 6.11172 8.50864 6.11332 8.78384ZM6.99205 10.0731C7.10277 10.1275 7.21509 10.1582 7.33157 10.165C7.44709 10.172 7.56293 10.1509 7.67877 10.1019C7.79429 10.053 7.90853 9.97232 8.02085 9.86C8.12197 9.75824 8.18981 9.65552 8.22341 9.55184C8.25669 9.44848 8.26789 9.34256 8.25733 9.23376C8.24677 9.12496 8.21573 9.012 8.16517 8.89424C8.11461 8.77648 8.05541 8.6568 7.98885 8.53424L6.66853 9.85456C6.77349 9.94544 6.88165 10.0187 6.99205 10.0731ZM8.86245 6.22416C8.64165 6.21008 8.43077 6.30288 8.23109 6.50288C8.13989 6.59408 8.07685 6.6872 8.04165 6.78192C8.00645 6.87632 7.99429 6.97296 8.00452 7.07088C8.01508 7.16944 8.04133 7.27088 8.08357 7.37616C8.12581 7.48144 8.17829 7.59024 8.24133 7.70224L9.47269 6.4712C9.28645 6.32048 9.08357 6.23792 8.86245 6.22416Z" fill="black" stroke="black" stroke-width="0.2"/>
</g>
<defs>
<clipPath id="clip0_4_2385">
<rect width="16" height="16" fill="white"/>
</clipPath>
</defs>
</svg>
