<svg width="17" height="17" viewBox="0 0 17 17" fill="none" xmlns="http://www.w3.org/2000/svg">
<path d="M16.7716 3.84519C16.7184 3.66669 16.5761 3.5275 16.3954 3.47969C16.2127 3.42975 16.0214 3.48288 15.8886 3.61356L13.1091 6.33038L11.0755 5.92344L10.6707 3.89725L13.481 1.15069C13.6149 1.02 13.6701 0.82875 13.6266 0.647063C13.583 0.465375 13.4481 0.319812 13.2696 0.2635C12.7054 0.0871249 12.1879 0 11.6875 0C8.75819 0 6.375 2.38319 6.375 5.3125C6.375 5.65569 6.41538 6.00313 6.50037 6.38563C5.90325 6.87756 5.33588 7.3015 4.69306 7.78175C3.774 8.46813 2.73275 9.24481 1.31219 10.4444C0.478125 11.1733 0 12.2071 0 13.2812C0 15.3319 1.66813 17 3.71875 17C4.80356 17 5.83631 16.5155 6.54712 15.6719C7.76794 14.2407 8.55631 13.1899 9.25012 12.2623C9.71975 11.6344 10.1341 11.0819 10.6133 10.4986C10.9958 10.5846 11.3443 10.625 11.6875 10.625C14.6168 10.625 17 8.24181 17 5.3125C17 4.84819 16.9277 4.38281 16.7716 3.84519ZM3.71875 14.3438C3.13119 14.3438 2.65625 13.8688 2.65625 13.2812C2.65625 12.6937 3.13119 12.2188 3.71875 12.2188C4.30631 12.2188 4.78125 12.6937 4.78125 13.2812C4.78125 13.8688 4.30631 14.3438 3.71875 14.3438Z" fill="white"/>
</svg>
