<svg width="20" height="23" viewBox="0 0 20 23" fill="none" xmlns="http://www.w3.org/2000/svg">
<path d="M1.17813 17.2586C1.35836 17.3327 1.54761 17.3905 1.7307 17.4465C1.78776 17.4641 1.84484 17.4817 1.90192 17.4996C2.9587 17.8197 3.9459 18.3264 4.81413 18.9941C6.22543 20.0939 7.6535 21.1285 8.86413 21.9956C9.20213 22.2347 9.58465 22.4074 9.99048 22.5046C10.7545 22.6908 11.5387 22.7877 12.3263 22.7931C14.0121 22.8014 15.6517 22.2579 16.9815 21.2503C18.8396 19.885 19.7793 18.1433 19.7735 16.0716C19.7737 15.2532 19.6892 14.4369 19.5213 13.6349C19.2057 12.0642 18.6977 10.5358 18.0085 9.08235C17.6422 8.3289 17.2163 7.7516 16.7065 7.31748C16.4913 7.1284 16.2372 6.98607 15.9612 6.89994C15.6851 6.81381 15.3932 6.78587 15.1051 6.81799C14.813 6.85354 14.5321 6.94912 14.281 7.09838C14.0299 7.24768 13.8143 7.44721 13.6485 7.68377C13.6046 7.74414 13.5621 7.80585 13.5135 7.87624L13.4701 7.93873C12.8417 7.44411 12.2024 7.25465 11.5182 7.35866C10.8569 7.45943 10.5655 7.66946 9.91402 8.52858C8.54782 7.83861 7.85451 8.26486 7.21152 9.19789C7.10651 9.00466 7.00481 8.81494 6.9047 8.62826C6.65359 8.15928 6.41568 7.71629 6.15952 7.27797C5.57075 6.2701 4.99159 5.28664 4.38046 4.33517C4.02837 3.79349 3.53602 3.35136 2.95274 3.05314C2.30942 2.72082 1.74185 2.83313 1.26575 3.38701C1.0847 3.58843 0.958293 3.83064 0.898009 4.09164C0.837726 4.35264 0.845489 4.62414 0.920581 4.8815C1.02046 5.24702 1.15605 5.60854 1.28709 5.95819C1.35444 6.13734 1.42157 6.31649 1.48435 6.49687C2.22423 8.62048 3.25542 10.6576 4.25272 12.6276L4.41769 12.9533C4.50169 13.1198 4.57874 13.2863 4.66789 13.4791C4.69756 13.5433 4.72827 13.6096 4.76056 13.6789L4.67006 13.6632C4.55453 13.6436 4.45909 13.6274 4.36423 13.6084C3.24983 13.3878 2.09128 13.5476 1.08405 14.0612C0.317223 14.4354 -0.0364234 14.9466 0.00295681 15.624C0.0479307 16.4071 0.443492 16.9571 1.17813 17.2586ZM5.38175 15.4493C5.6614 15.7462 5.91639 15.8254 6.16202 15.6916C6.41816 15.5519 6.51749 15.3094 6.44935 14.9902C6.4055 14.8014 6.33931 14.6183 6.25209 14.4443C5.95249 13.8212 5.65055 13.199 5.34623 12.5778C4.73168 11.3173 4.09615 10.0137 3.50201 8.71894C3.08138 7.8023 2.71039 6.84496 2.35164 5.91901C2.24175 5.63536 2.13143 5.35204 2.02063 5.06899C1.91933 4.8527 1.87084 4.61655 1.87907 4.37901C1.9078 4.1576 2.01863 3.95398 2.19079 3.80637C2.24855 3.76365 2.52469 3.83478 2.68632 3.95344C2.96691 4.14797 3.2134 4.38521 3.4163 4.65605C3.8159 5.21502 4.1811 5.79653 4.50992 6.39753C5.06674 7.43325 5.61712 8.4946 6.14938 9.52101C6.40743 10.0186 6.66613 10.516 6.92556 11.0129L6.94383 11.0482C7.00406 11.1796 7.08359 11.3019 7.17997 11.4111C7.24152 11.4877 7.32495 11.5449 7.41975 11.5757C7.51456 11.6066 7.61662 11.6094 7.71314 11.5842C7.80966 11.5589 7.89639 11.5065 7.96251 11.4336C8.0286 11.3607 8.07116 11.2706 8.08484 11.1742C8.1038 11.0731 8.10816 10.9699 8.09782 10.8676C8.09234 10.7981 8.09206 10.7283 8.09693 10.6587C8.10676 10.5577 8.11416 10.4556 8.12147 10.3536C8.13201 10.0635 8.17321 9.77526 8.24441 9.49338C8.26048 9.38766 8.30762 9.28873 8.38018 9.20846C8.45274 9.12822 8.54757 9.07009 8.65333 9.04106C8.75909 9.01205 8.87123 9.01337 8.97622 9.04489C9.08121 9.07642 9.17462 9.13683 9.24514 9.21876C9.43533 9.41066 9.59571 9.6285 9.72122 9.86544C9.75627 9.92382 9.79107 9.98211 9.82656 10.0392C9.88086 10.1355 9.92409 10.2375 9.95538 10.3431C9.97397 10.3986 9.99265 10.4532 10.0141 10.5068C10.1299 10.7954 10.3515 10.9106 10.6377 10.8321C10.8955 10.7613 11.0172 10.5657 10.9801 10.2826C10.9652 10.168 10.9459 10.0539 10.9265 9.93992C10.9078 9.82892 10.8891 9.71903 10.8744 9.60802C10.8569 9.47929 10.8504 9.34934 10.8549 9.21954L10.8572 9.15983C10.8709 8.79908 10.8839 8.45831 11.2719 8.30157C11.759 8.10455 12.2209 8.17561 12.5732 8.50138C12.7456 8.67789 12.8936 8.87567 13.0132 9.08966C13.0518 9.15183 13.0901 9.21377 13.1295 9.27439C13.1681 9.33826 13.2013 9.40508 13.2288 9.47417C13.2687 9.58736 13.3312 9.6917 13.4129 9.78118C13.5511 9.91294 13.7927 10.0287 13.9592 9.99418C14.1258 9.95967 14.2963 9.75666 14.3639 9.58062C14.4098 9.44071 14.4356 9.29527 14.4404 9.1485C14.4471 9.06514 14.4539 8.97901 14.4687 8.89788C14.4954 8.71405 14.5419 8.53347 14.6075 8.35909C14.7291 8.06572 14.9271 7.87391 15.1661 7.81896C15.2841 7.79794 15.4057 7.80514 15.5202 7.83996C15.6348 7.87477 15.7389 7.93613 15.8236 8.01876C16.206 8.34554 16.6783 8.78554 16.9366 9.29147C17.9598 11.2941 18.5518 13.338 18.6961 15.3667C18.7033 15.4673 18.7012 15.5714 18.6993 15.6721C18.6982 15.7208 18.6973 15.7694 18.6973 15.8181V15.8204C18.8311 19.025 15.2948 21.289 12.8016 21.4397C10.8953 21.5554 9.3258 21.046 8.00526 19.8836C7.07131 19.0616 6.06114 18.2882 5.19613 17.6403C4.32474 16.9811 3.33302 16.4882 2.27322 16.1873L2.24585 16.1797C1.97526 16.1131 1.71197 16.0208 1.45982 15.9044C1.22936 15.7878 1.09331 15.6351 1.07676 15.4746C1.06089 15.3201 1.15188 15.1603 1.3401 15.0125C1.60209 14.8029 1.90627 14.6488 2.23314 14.5602C2.56823 14.4723 2.91342 14.426 3.26046 14.4224C3.78013 14.4143 4.29055 14.5569 4.72646 14.8322C4.93222 14.9771 5.11801 15.1472 5.27935 15.3381C5.31326 15.3755 5.34738 15.4126 5.38175 15.4491V15.4493Z" fill="white"/>
<path d="M7.73216 2.45806C9.60555 2.51533 11.4059 3.17769 12.8492 4.3406C12.9049 4.38433 12.9601 4.4294 13.0153 4.47379C13.1688 4.59767 13.3274 4.72576 13.4958 4.83653C13.6201 4.9282 13.7697 4.98191 13.9253 4.99082C13.9892 4.9903 14.0523 4.97695 14.1106 4.95165C14.1688 4.92634 14.2212 4.8896 14.2642 4.84375C14.5724 4.53961 14.3084 4.21207 14.2217 4.10439C14.1009 3.95068 13.9643 3.80936 13.8141 3.68259C12.4613 2.56584 10.9667 1.86101 9.37195 1.58773C8.98774 1.52191 8.60407 1.48961 8.19773 1.45542C8.04933 1.44288 7.89992 1.43033 7.74821 1.41579C7.80081 1.36111 7.85263 1.30749 7.90361 1.25494C8.07973 1.07291 8.24601 0.901094 8.40479 0.722165C8.58889 0.51482 8.60524 0.29937 8.44931 0.13143C8.21463 -0.122202 7.95644 0.0511759 7.80211 0.154626C7.16644 0.581415 6.54437 0.998219 5.92489 1.40258C5.57195 1.63324 5.38522 1.8973 5.3851 2.16637C5.3851 2.41467 5.54658 2.65187 5.85305 2.85223C6.36547 3.17018 6.90065 3.4521 7.45444 3.6958L7.70552 3.81368C7.89698 3.88394 8.10369 3.90573 8.30618 3.87696C8.37096 3.87723 8.43479 3.86174 8.49185 3.83187C8.54888 3.80202 8.59729 3.75875 8.63274 3.70602C8.65955 3.65139 8.67188 3.59108 8.66851 3.53064C8.66515 3.47018 8.6462 3.41153 8.61345 3.36003C8.50841 3.17115 8.36606 3.00426 8.19454 2.86898C8.04804 2.75837 7.89279 2.65914 7.73021 2.57228C7.68114 2.54419 7.62955 2.51467 7.57533 2.48348L7.58821 2.48083C7.63514 2.46796 7.68345 2.46031 7.73216 2.45806Z" fill="white"/>
</svg>
