<svg width="17" height="17" viewBox="0 0 17 17" fill="none" xmlns="http://www.w3.org/2000/svg">
<path d="M13 0C10.794 0 9 1.795 9 4V7H5V6H2C0.897 6 0 6.896 0 8V15C0 16.104 0.897 17 2 17H12C13.103 17 14 16.104 14 15V8C14 6.896 13.103 6 12 6H11V4C11 2.896 11.897 2 13 2C14.103 2 15 2.896 15 4V7C15 7.553 15.448 8 16 8C16.552 8 17 7.553 17 7V4C17 1.795 15.206 0 13 0ZM7 14.299C6.281 14.299 5.7 13.719 5.7 13C5.7 12.281 6.281 11.699 7 11.699C7.719 11.699 8.3 12.281 8.3 13C8.3 13.719 7.719 14.299 7 14.299Z" fill="white"/>
</svg>
